<svg width="31" height="30" viewBox="0 0 31 30" fill="none" xmlns="http://www.w3.org/2000/svg">
<path d="M15.4287 1.5625H17.375C17.6236 1.5625 17.8621 1.66127 18.0379 1.83709C18.2137 2.0129 18.3125 2.25136 18.3125 2.5C18.3125 2.74864 18.2137 2.9871 18.0379 3.16291C17.8621 3.33873 17.6236 3.4375 17.375 3.4375H15.5C12.5275 3.4375 10.3925 3.44 8.7675 3.6575C7.16875 3.8725 6.205 4.2825 5.4925 4.99375C4.78125 5.70625 4.3725 6.66875 4.1575 8.2675C3.94 9.8925 3.9375 12.0275 3.9375 15C3.9375 17.9725 3.94 20.1075 4.1575 21.7325C4.3725 23.3312 4.7825 24.295 5.49375 25.0075C6.20625 25.7187 7.16875 26.1275 8.7675 26.3425C10.3925 26.56 12.5275 26.5625 15.5 26.5625C18.4725 26.5625 20.6075 26.56 22.2325 26.3425C23.8312 26.1275 24.795 25.7175 25.5075 25.0062C26.2187 24.2937 26.6275 23.3312 26.8425 21.7325C27.06 20.1075 27.0625 17.9725 27.0625 15V13.125C27.0625 12.8764 27.1613 12.6379 27.3371 12.4621C27.5129 12.2863 27.7514 12.1875 28 12.1875C28.2486 12.1875 28.4871 12.2863 28.6629 12.4621C28.8387 12.6379 28.9375 12.8764 28.9375 13.125V15.0712C28.9375 17.9575 28.9375 20.2187 28.7 21.9837C28.4575 23.7887 27.95 25.2137 26.8325 26.3325C25.7137 27.4512 24.2887 27.9575 22.4825 28.2C20.7187 28.4375 18.4575 28.4375 15.5712 28.4375H15.4287C12.5425 28.4375 10.2812 28.4375 8.51625 28.2C6.71125 27.9575 5.28625 27.45 4.1675 26.3325C3.04875 25.2137 2.5425 23.7887 2.3 21.9825C2.0625 20.2187 2.0625 17.9575 2.0625 15.0712V14.9287C2.0625 12.0425 2.0625 9.78125 2.3 8.01625C2.5425 6.21125 3.05 4.78625 4.1675 3.6675C5.28625 2.54875 6.71125 2.0425 8.5175 1.8C10.2812 1.5625 12.5425 1.5625 15.4287 1.5625Z" fill="black"/>
<path fill-rule="evenodd" clip-rule="evenodd" d="M19.5625 6.25C19.5625 5.0068 20.0564 3.81451 20.9354 2.93544C21.8145 2.05636 23.0068 1.5625 24.25 1.5625C25.4932 1.5625 26.6855 2.05636 27.5646 2.93544C28.4436 3.81451 28.9375 5.0068 28.9375 6.25C28.9375 7.4932 28.4436 8.68549 27.5646 9.56456C26.6855 10.4436 25.4932 10.9375 24.25 10.9375C23.0068 10.9375 21.8145 10.4436 20.9354 9.56456C20.0564 8.68549 19.5625 7.4932 19.5625 6.25ZM24.25 3.4375C23.8807 3.4375 23.5149 3.51025 23.1737 3.65159C22.8325 3.79293 22.5224 4.0001 22.2613 4.26126C22.0001 4.52243 21.7929 4.83247 21.6516 5.1737C21.5102 5.51493 21.4375 5.88066 21.4375 6.25C21.4375 6.61934 21.5102 6.98507 21.6516 7.3263C21.7929 7.66753 22.0001 7.97757 22.2613 8.23874C22.5224 8.4999 22.8325 8.70707 23.1737 8.84841C23.5149 8.98975 23.8807 9.0625 24.25 9.0625C24.9959 9.0625 25.7113 8.76618 26.2387 8.23874C26.7662 7.71129 27.0625 6.99592 27.0625 6.25C27.0625 5.50408 26.7662 4.78871 26.2387 4.26126C25.7113 3.73382 24.9959 3.4375 24.25 3.4375Z" fill="black"/>
<path d="M17.6875 12.5C17.6875 13.0175 18.1075 13.4375 18.625 13.4375H19.4875L16.9713 15.9537C16.9422 15.9829 16.9077 16.0059 16.8698 16.0217C16.8318 16.0374 16.7911 16.0456 16.75 16.0456C16.7089 16.0456 16.6682 16.0374 16.6302 16.0217C16.5923 16.0059 16.5578 15.9829 16.5288 15.9537L14.5463 13.9712C14.1361 13.5613 13.5799 13.3311 13 13.3311C12.4201 13.3311 11.8639 13.5613 11.4538 13.9712L8.5875 16.8375C8.49539 16.9233 8.42151 17.0268 8.37027 17.1418C8.31903 17.2568 8.29148 17.381 8.28926 17.5068C8.28704 17.6327 8.3102 17.7578 8.35735 17.8745C8.4045 17.9912 8.47468 18.0973 8.5637 18.1863C8.65273 18.2753 8.75877 18.3455 8.8755 18.3927C8.99224 18.4398 9.11728 18.463 9.24315 18.4607C9.36903 18.4585 9.49317 18.431 9.60817 18.3797C9.72317 18.3285 9.82667 18.2546 9.9125 18.1625L12.7788 15.2963C12.8078 15.2671 12.8423 15.2441 12.8802 15.2283C12.9182 15.2126 12.9589 15.2044 13 15.2044C13.0411 15.2044 13.0818 15.2126 13.1198 15.2283C13.1577 15.2441 13.1922 15.2671 13.2213 15.2963L15.2038 17.2787C15.6139 17.6887 16.1701 17.9189 16.75 17.9189C17.3299 17.9189 17.8861 17.6887 18.2963 17.2787L20.8125 14.7637V15.625C20.8125 15.8736 20.9113 16.1121 21.0871 16.2879C21.2629 16.4637 21.5014 16.5625 21.75 16.5625C21.9986 16.5625 22.2371 16.4637 22.4129 16.2879C22.5887 16.1121 22.6875 15.8736 22.6875 15.625V12.5C22.6875 12.2514 22.5887 12.0129 22.4129 11.8371C22.2371 11.6613 21.9986 11.5625 21.75 11.5625H18.625C18.3764 11.5625 18.1379 11.6613 17.9621 11.8371C17.7863 12.0129 17.6875 12.2514 17.6875 12.5Z" fill="black"/>
</svg>
